<svg width="391" height="237" viewBox="0 0 391 237" fill="none" xmlns="http://www.w3.org/2000/svg">
<line x1="2" y1="203.5" x2="387" y2="203.5" stroke="#D9D9D9"/>
<line x1="2" y1="174.5" x2="387" y2="174.5" stroke="#D9D9D9"/>
<line x1="2" y1="145.5" x2="387" y2="145.5" stroke="#D9D9D9"/>
<line x1="2" y1="116.5" x2="387" y2="116.5" stroke="#D9D9D9"/>
<line x1="2" y1="87.5" x2="387" y2="87.5" stroke="#D9D9D9"/>
<line x1="2" y1="58.5" x2="387" y2="58.5" stroke="#D9D9D9"/>
<line x1="2" y1="29.5" x2="387" y2="29.5" stroke="#D9D9D9"/>
<line x1="2" y1="0.5" x2="387" y2="0.5" stroke="#D9D9D9"/>
<path d="M51.8561 160.949C30.2518 211.076 29.1439 227.025 2 235H387V10C356.304 33.4476 337.698 48.1646 307.784 72.6582C277.871 97.1519 283.964 166.646 256.266 154.684C228.568 142.722 231.536 126.079 210.288 124.494C179.758 122.216 162.647 173.481 149.353 175.19C136.058 176.899 128.302 174.051 112.791 160.949C97.2806 147.848 73.4604 110.823 51.8561 160.949Z" fill="#ACC6DA"/>
<path d="M3 235C30.1439 227.025 31.2518 211.076 52.8561 160.949C74.4604 110.823 98.2806 147.848 113.791 160.949C129.302 174.051 137.288 179.38 150.353 175.19C163.417 171 180.758 122.216 211.288 124.494C232.536 126.079 232.221 143.867 257.266 154.684C282.311 165.5 278.871 97.1519 308.784 72.6582C338.698 48.1646 357.304 33.4476 388 10" stroke="#112D4E" stroke-width="4"/>
<circle cx="77.5" cy="134.5" r="4" fill="#112D4E" stroke="white"/>
<circle cx="142.5" cy="176.5" r="4" fill="#112D4E" stroke="white"/>
<circle cx="208.5" cy="124.5" r="4" fill="#112D4E" stroke="white"/>
<circle cx="261.5" cy="154.5" r="4" fill="#112D4E" stroke="white"/>
<circle cx="308.5" cy="72.5" r="4" fill="#112D4E" stroke="white"/>
<circle cx="386.5" cy="10.5" r="4" fill="#112D4E" stroke="white"/>
<line y1="235.5" x2="387" y2="235.5" stroke="black" stroke-width="3"/>
</svg>
