<svg width="183" height="183" viewBox="0 0 183 183" fill="none" xmlns="http://www.w3.org/2000/svg">
<path d="M170.356 45.0888C162.252 31.319 150.683 19.9114 136.801 12.001C122.919 4.09055 107.207 -0.0468588 91.2294 0.00040025L91.2944 21.9788C103.434 21.9429 115.372 25.0865 125.919 31.0968C136.467 37.1071 145.257 45.7746 151.415 56.2369L170.356 45.0888Z" fill="#DBE2EF"/>
<path d="M148.653 162.955C165.952 149.118 177.645 129.475 181.56 107.67C185.475 85.8662 181.346 63.382 169.941 44.3909L151.099 55.7066C159.765 70.136 162.902 87.2194 159.927 103.786C156.953 120.353 148.069 135.278 134.924 145.791L148.653 162.955Z" fill="#3F72AF"/>
<path d="M91.5 0C76.8702 -1.74459e-07 62.4537 3.50801 49.4595 10.2298C36.4653 16.9516 25.2723 26.6912 16.8193 38.6318C8.36629 50.5724 2.89967 64.3658 0.877921 78.8553C-1.14383 93.3447 0.338249 108.108 5.19985 121.906C10.0614 135.705 18.1608 148.136 28.8187 158.158C39.4766 168.18 52.3822 175.5 66.4532 179.505C80.5242 183.51 95.3504 184.082 109.688 181.174C124.026 178.266 137.458 171.962 148.856 162.792L135.079 145.667C126.419 152.635 116.213 157.425 105.319 159.634C94.4255 161.844 83.1606 161.409 72.4695 158.366C61.7784 155.323 51.9727 149.761 43.8749 142.147C35.777 134.532 29.6232 125.087 25.9293 114.603C22.2355 104.119 21.1094 92.9016 22.6455 81.8926C24.1817 70.8835 28.3352 60.4033 34.7578 51.3309C41.1804 42.2584 49.6847 34.8583 59.5577 29.7511C69.4306 24.6439 80.3843 21.9785 91.5 21.9785L91.5 0Z" fill="#112D4E"/>
</svg>
